<?xml version="1.0" standalone="no"?>
<!DOCTYPE svg PUBLIC "-//W3C//DTD SVG 20010904//EN"
 "http://www.w3.org/TR/2001/REC-SVG-20010904/DTD/svg10.dtd">
<svg version="1.0" xmlns="http://www.w3.org/2000/svg"
 width="700.000000pt" height="700.000000pt" viewBox="0 0 700.000000 700.000000"
 preserveAspectRatio="xMidYMid meet">
<metadata>
Created by potrace 1.11, written by Peter Selinger 2001-2013
</metadata>
<g transform="translate(0.000000,700.000000) scale(0.100000,-0.100000)"
fill="#000000" stroke="none">
<path d="M913 5636 c4 -9 570 -858 1259 -1887 l1252 -1869 414 0 c328 0 412 3
405 13 -6 9 -1406 1570 -1572 1752 -20 21 -29 34 -21 28 8 -5 657 -479 1442
-1052 l1427 -1041 513 2 513 3 -255 151 c-463 274 -4035 2396 -4038 2399 -2 2
12 25 31 52 84 117 143 282 155 430 25 306 -83 537 -326 702 -153 103 -448
221 -692 275 -153 34 -230 44 -384 52 -120 7 -129 6 -123 -10z m352 -111 c266
-40 575 -165 768 -311 123 -92 189 -185 217 -303 19 -80 8 -210 -25 -301 -29
-80 -100 -203 -136 -235 l-21 -20 -34 40 c-18 23 -231 289 -473 593 -356 446
-436 552 -418 552 12 0 67 -7 122 -15z"/>
</g>
</svg>
