<svg width="104" height="119" viewBox="0 0 104 119" fill="none" xmlns="http://www.w3.org/2000/svg">
<path d="M41.3616 50.0413C38.0114 50.0413 35.3665 52.9788 35.3665 56.5625C35.3665 60.1463 38.0702 63.0838 41.3616 63.0838C44.7118 63.0838 47.3567 60.1463 47.3567 56.5625C47.4155 52.9788 44.7118 50.0413 41.3616 50.0413ZM62.8147 50.0413C59.4645 50.0413 56.8196 52.9788 56.8196 56.5625C56.8196 60.1463 59.5233 63.0838 62.8147 63.0838C66.1649 63.0838 68.8098 60.1463 68.8098 56.5625C68.8098 52.9788 66.1649 50.0413 62.8147 50.0413Z" fill="black"/>
<path d="M91.3796 0.75H12.6204C5.97876 0.75 0.571411 6.155 0.571411 12.8525V92.2825C0.571411 98.98 5.97876 104.385 12.6204 104.385H79.2718L76.1567 93.5162L83.68 100.507L90.7918 107.087L103.429 118.25V12.8525C103.429 6.155 98.0212 0.75 91.3796 0.75ZM68.6922 77.4775C68.6922 77.4775 66.5763 74.9512 64.8131 72.7187C72.5126 70.545 75.4514 65.7275 75.4514 65.7275C73.0416 67.3138 70.7494 68.43 68.6922 69.1937C65.7535 70.4275 62.9322 71.25 60.1698 71.72C54.5273 72.7775 49.3551 72.4837 44.9469 71.6612C41.5967 71.015 38.7167 70.075 36.3069 69.135C34.9551 68.6062 33.4857 67.96 32.0163 67.1375C31.84 67.02 31.6637 66.9612 31.4873 66.8437C31.3698 66.785 31.311 66.7262 31.2522 66.6675C30.1943 66.08 29.6065 65.6687 29.6065 65.6687C29.6065 65.6687 32.4277 70.3687 39.8922 72.6012C38.129 74.8337 35.9543 77.4775 35.9543 77.4775C22.9649 77.0663 18.0277 68.5475 18.0277 68.5475C18.0277 49.63 26.4914 34.2962 26.4914 34.2962C34.9551 27.9512 43.0073 28.1275 43.0073 28.1275L43.5951 28.8325C33.0155 31.8875 28.1371 36.5287 28.1371 36.5287C28.1371 36.5287 29.4302 35.8237 31.6049 34.825C37.8939 32.0637 42.8898 31.3 44.9469 31.1237C45.2996 31.065 45.5935 31.0062 45.9461 31.0062C49.5314 30.5362 53.5869 30.4188 57.8188 30.8888C63.4024 31.535 69.3975 33.18 75.5102 36.5287C75.5102 36.5287 70.8669 32.1225 60.8751 29.0675L61.6979 28.1275C61.6979 28.1275 69.7502 27.9512 78.2139 34.2962C78.2139 34.2962 86.6775 49.63 86.6775 68.5475C86.6775 68.5475 81.6816 77.0663 68.6922 77.4775V77.4775Z" fill="black"/>
</svg>
