<svg width="100" height="100" viewBox="0 0 100 100" fill="none" xmlns="http://www.w3.org/2000/svg">
<circle cx="50" cy="50" r="50" fill="black"/>
<rect x="20.6927" y="30.3801" width="1.46236" height="68.2437" transform="rotate(-36.6521 20.6927 30.3801)" fill="white"/>
<rect x="37.5089" y="17.8677" width="1.46236" height="48.7455" transform="rotate(-36.6521 37.5089 17.8677)" fill="white"/>
<rect x="44.2831" y="31.0548" width="1.46236" height="53.62" transform="rotate(-36.6521 44.2831 31.0548)" fill="white"/>
<rect x="31.3777" y="40.6575" width="1.46236" height="34.1218" transform="rotate(-36.6521 31.3777 40.6575)" fill="white"/>
<path d="M38.6821 16.9947C37.8032 15.8135 36.7002 14.817 35.4362 14.0621C34.1722 13.3071 32.7718 12.8085 31.3151 12.5948C29.8584 12.381 28.3739 12.4563 26.9462 12.8163C25.5186 13.1762 24.1759 13.8139 22.9947 14.6928C21.8135 15.5717 20.817 16.6746 20.062 17.9386C19.3071 19.2027 18.8085 20.603 18.5947 22.0597C18.381 23.5164 18.4562 25.001 18.8162 26.4286C19.1762 27.8562 19.8138 29.199 20.6927 30.3802L21.8424 29.5247C21.0758 28.4945 20.5197 27.3234 20.2057 26.0782C19.8918 24.8331 19.8261 23.5383 20.0125 22.2678C20.199 20.9973 20.6338 19.7759 21.2923 18.6734C21.9507 17.571 22.8199 16.609 23.8501 15.8424C24.8803 15.0759 26.0515 14.5197 27.2966 14.2058C28.5418 13.8918 29.8366 13.8262 31.1071 14.0126C32.3776 14.199 33.599 14.6339 34.7014 15.2923C35.8039 15.9508 36.7659 16.8199 37.5324 17.8502L38.6821 16.9947Z" fill="white"/>
<path d="M77.3195 73.0044C78.1029 74.0572 78.6712 75.254 78.9921 76.5264C79.3129 77.7989 79.38 79.1221 79.1895 80.4205C78.999 81.7188 78.5546 82.967 77.8817 84.0936C77.2088 85.2202 76.3206 86.2033 75.2678 86.9866C74.215 87.77 73.0182 88.3383 71.7457 88.6592C70.4733 88.98 69.1501 89.0471 67.8517 88.8566C66.5534 88.6661 65.3052 88.2217 64.1786 87.5488C63.052 86.8759 62.0689 85.9877 61.2855 84.9349L62.4448 84.0723C63.1149 84.9729 63.9558 85.7327 64.9195 86.3083C65.8832 86.8839 66.9509 87.264 68.0615 87.427C69.1721 87.5899 70.304 87.5326 71.3925 87.2581C72.4809 86.9837 73.5047 86.4975 74.4052 85.8274C75.3058 85.1573 76.0656 84.3164 76.6412 83.3527C77.2167 82.389 77.5969 81.3213 77.7598 80.2107C77.9228 79.1 77.8654 77.9682 77.591 76.8797C77.3165 75.7913 76.8304 74.7675 76.1603 73.867L77.3195 73.0044Z" fill="white"/>
<path d="M45.4564 30.1818C44.7685 29.2574 43.9053 28.4775 42.9161 27.8867C41.9269 27.2958 40.831 26.9056 39.6909 26.7383C38.5509 26.5711 37.3891 26.63 36.2718 26.9117C35.1545 27.1934 34.1037 27.6924 33.1793 28.3803C32.2548 29.0681 31.475 29.9313 30.8841 30.9205C30.2933 31.9097 29.9031 33.0057 29.7358 34.1457C29.5685 35.2857 29.6274 36.4476 29.9092 37.5648C30.1909 38.6821 30.6899 39.7329 31.3777 40.6574L32.542 39.7911C31.9679 39.0195 31.5514 38.1425 31.3163 37.21C31.0812 36.2775 31.032 35.3079 31.1717 34.3564C31.3113 33.4049 31.6369 32.4902 32.13 31.6646C32.6231 30.839 33.274 30.1186 34.0456 29.5445C34.8171 28.9704 35.6941 28.554 36.6266 28.3188C37.5591 28.0837 38.5288 28.0346 39.4802 28.1742C40.4317 28.3138 41.3464 28.6394 42.172 29.1326C42.9976 29.6257 43.718 30.2766 44.2921 31.0481L45.4564 30.1818Z" fill="white"/>
</svg>
