<svg width="100" height="100" viewBox="0 0 100 100" fill="none" xmlns="http://www.w3.org/2000/svg">
<circle cx="50" cy="50" r="50" fill="white"/>
<path fill-rule="evenodd" clip-rule="evenodd" d="M48.8832 73.0812L12.9031 19.355H14.7808L15.9758 20.8567L29.5638 37.8753L32.0452 40.8787L37.4848 47.2192L60.7584 73.0812H48.8832Z" fill="black"/>
<path d="M32.0452 40.8787C34.7858 38.0422 36.9826 30.0332 31.6907 25.1945C27.5984 21.4527 18.6563 19.3314 14.7808 19.355C15.0259 19.355 14.4965 19.3567 14.7808 19.355L15.9758 20.8567C19.3301 20.8529 26.7574 22.9064 30.45 26.6962C33.8642 30.2001 32.0351 35.3169 29.5638 37.8753L32.0452 40.8787Z" fill="black"/>
<path d="M93.5482 77.4193L32.0452 40.8787L37.4848 47.2192L78.8371 77.4193H84.941H93.5482Z" fill="black"/>
</svg>
