<svg width="100" height="100" viewBox="0 0 100 100" fill="none" xmlns="http://www.w3.org/2000/svg">
<g clip-path="url(#clip0)">
<path d="M31.05 23.75C32.0833 22.7833 33.2167 21.8667 34.45 21C35.7167 20.1333 37.0833 19.3667 38.55 18.7C40.05 18.0333 41.65 17.5167 43.35 17.15C45.0833 16.75 46.95 16.55 48.95 16.55C51.5833 16.55 54.0167 16.9333 56.25 17.7C58.5167 18.4667 60.4667 19.55 62.1 20.95C63.7333 22.35 65.0167 24.05 65.95 26.05C66.8833 28.05 67.35 30.3 67.35 32.8C67.35 35.3333 66.9667 37.5167 66.2 39.35C65.4667 41.1833 64.5167 42.8 63.35 44.2C62.2167 45.5667 60.9667 46.7667 59.6 47.8C58.2667 48.8 57 49.75 55.8 50.65C54.6 51.55 53.5667 52.45 52.7 53.35C51.8667 54.25 51.3833 55.25 51.25 56.35L50.35 64H44.25L43.65 55.7C43.5167 54.2 43.8 52.9 44.5 51.8C45.2 50.6667 46.1167 49.6167 47.25 48.65C48.3833 47.65 49.6333 46.6833 51 45.75C52.3667 44.7833 53.6333 43.7167 54.8 42.55C56 41.3833 57 40.0667 57.8 38.6C58.6 37.1 59 35.3167 59 33.25C59 31.8167 58.7167 30.5167 58.15 29.35C57.5833 28.1833 56.8167 27.2 55.85 26.4C54.8833 25.5667 53.7333 24.9333 52.4 24.5C51.1 24.0667 49.7 23.85 48.2 23.85C46.1667 23.85 44.4167 24.1 42.95 24.6C41.5167 25.1 40.3 25.65 39.3 26.25C38.3 26.85 37.4833 27.4 36.85 27.9C36.25 28.4 35.75 28.65 35.35 28.65C34.5167 28.65 33.8667 28.2667 33.4 27.5L31.05 23.75ZM40.8 83.5C40.8 82.6333 40.95 81.8167 41.25 81.05C41.5833 80.2833 42.0167 79.6167 42.55 79.05C43.1167 78.4833 43.7833 78.0333 44.55 77.7C45.3167 77.3667 46.1333 77.2 47 77.2C47.8667 77.2 48.6833 77.3667 49.45 77.7C50.2167 78.0333 50.8833 78.4833 51.45 79.05C52.0167 79.6167 52.4667 80.2833 52.8 81.05C53.1333 81.8167 53.3 82.6333 53.3 83.5C53.3 84.4 53.1333 85.2333 52.8 86C52.4667 86.7333 52.0167 87.3833 51.45 87.95C50.8833 88.5167 50.2167 88.95 49.45 89.25C48.6833 89.5833 47.8667 89.75 47 89.75C46.1333 89.75 45.3167 89.5833 44.55 89.25C43.7833 88.95 43.1167 88.5167 42.55 87.95C42.0167 87.3833 41.5833 86.7333 41.25 86C40.95 85.2333 40.8 84.4 40.8 83.5Z" fill="white"/>
</g>
<defs>
<clipPath id="clip0">
<rect width="100" height="100" fill="white"/>
</clipPath>
</defs>
</svg>
