<svg width="95" height="93" viewBox="0 0 95 93" fill="none" xmlns="http://www.w3.org/2000/svg">
<path fill-rule="evenodd" clip-rule="evenodd" d="M47.5 3.51958e-05C21.2699 3.51958e-05 0 21.2652 0 47.5C0 68.486 13.6102 86.291 32.4834 92.5719C34.8573 93.0116 35.7288 91.5414 35.7288 90.2868C35.7288 89.155 35.6848 85.4124 35.6643 81.4433C22.4498 84.3167 19.6614 75.8389 19.6614 75.8389C17.5006 70.3494 14.3873 68.8887 14.3873 68.8887C10.0777 65.9406 14.7122 66.0012 14.7122 66.0012C19.482 66.3363 21.9936 70.8969 21.9936 70.8969C26.2301 78.1578 33.1056 76.0584 35.8161 74.8447C36.2433 71.7755 37.4735 69.6792 38.8319 68.4931C28.2815 67.2928 17.1907 63.2191 17.1907 45.0184C17.1907 39.8332 19.0462 35.5951 22.0848 32.2687C21.5916 31.0723 19.9658 26.2411 22.5457 19.6984C22.5457 19.6984 26.5345 18.4225 35.6108 24.5681C39.3998 23.5156 43.4633 22.9878 47.5 22.969C51.5367 22.9878 55.6033 23.5156 59.3994 24.5681C68.4655 18.4225 72.4487 19.6984 72.4487 19.6984C75.0342 26.2411 73.4084 31.0723 72.9152 32.2687C75.9608 35.5951 77.803 39.8332 77.803 45.0184C77.803 63.2631 66.691 67.2794 56.1138 68.4553C57.8176 69.9294 59.3357 72.82 59.3357 77.2516C59.3357 83.6072 59.2814 88.7223 59.2814 90.2868C59.2814 91.5517 60.1356 93.032 62.5433 92.5664C81.4071 86.2784 95 68.4797 95 47.5C95 21.2652 73.7332 3.51958e-05 47.5 3.51958e-05Z" fill="#1B1817"/>
</svg>
