<svg width="960" height="200" viewBox="0 0 960 200" fill="none" xmlns="http://www.w3.org/2000/svg">
<path fill-rule="evenodd" clip-rule="evenodd" d="M960 0H0V28L68 60L139 23L194.5 79.5H252.5L281 40L348.5 16.5L341 55L388.5 68L463.5 55L537.5 84L636.5 68L673 47.5L718 64L724.5 95.5L822.5 73.5L861.5 90L903 100L924.5 84L960 101L896 137.5L833.5 158.5L805 137.5H768.5L747.5 166.5L711 137.5L662.5 158.5L620.5 170.5L573 158.5L531 166.5L492.5 137.5L443.5 144.5L424 170.5L348.5 152.5L312.5 175L281 184.5L241 158.5L194.5 170.5L152 152.5L131 184.5L54.5 175L0 190V200H960V101V0Z" fill="black"/>
</svg>
