<svg width="200" height="200" viewBox="0 0 200 200" fill="none" xmlns="http://www.w3.org/2000/svg">
<rect x="77" y="32" width="3" height="140" fill="black"/>
<rect x="120" y="32" width="3" height="100" fill="black"/>
<rect x="115" y="62" width="3" height="110" fill="black"/>
<rect x="82" y="62" width="3" height="70" fill="black"/>
<path d="M123 32C123 28.9796 122.405 25.9888 121.249 23.1983C120.093 20.4078 118.399 17.8723 116.263 15.7365C114.128 13.6008 111.592 11.9066 108.802 10.7508C106.011 9.59491 103.02 9 100 9C96.9796 9 93.9888 9.59491 91.1983 10.7508C88.4078 11.9066 85.8723 13.6008 83.7365 15.7365C81.6008 17.8723 79.9066 20.4078 78.7508 23.1983C77.5949 25.9888 77 28.9796 77 32H79.9398C79.9398 29.3657 80.4586 26.7571 81.4668 24.3233C82.4749 21.8895 83.9525 19.678 85.8153 17.8153C87.678 15.9525 89.8895 14.4749 92.3233 13.4668C94.7571 12.4586 97.3657 11.9398 100 11.9398C102.634 11.9398 105.243 12.4586 107.677 13.4668C110.111 14.4749 112.322 15.9525 114.185 17.8153C116.048 19.678 117.525 21.8895 118.533 24.3233C119.541 26.7571 120.06 29.3657 120.06 32H123Z" fill="black"/>
<path d="M118 171.5C118 174.192 117.47 176.858 116.44 179.345C115.409 181.832 113.899 184.092 111.996 185.996C110.092 187.899 107.832 189.409 105.345 190.44C102.858 191.47 100.192 192 97.5 192C94.8079 192 92.1422 191.47 89.655 190.44C87.1678 189.409 84.9079 187.899 83.0043 185.996C81.1007 184.092 79.5907 181.832 78.5605 179.345C77.5302 176.858 77 174.192 77 171.5H79.9643C79.9643 173.803 80.4178 176.083 81.2991 178.211C82.1803 180.338 83.472 182.271 85.1004 183.9C86.7287 185.528 88.6618 186.82 90.7894 187.701C92.9169 188.582 95.1972 189.036 97.5 189.036C99.8028 189.036 102.083 188.582 104.211 187.701C106.338 186.82 108.271 185.528 109.9 183.9C111.528 182.271 112.82 180.338 113.701 178.211C114.582 176.083 115.036 173.803 115.036 171.5H118Z" fill="black"/>
<path d="M118 62C118 59.6362 117.534 57.2956 116.63 55.1117C115.725 52.9278 114.399 50.9435 112.728 49.2721C111.056 47.6006 109.072 46.2748 106.888 45.3702C104.704 44.4656 102.364 44 100 44C97.6362 44 95.2956 44.4656 93.1117 45.3702C90.9278 46.2748 88.9435 47.6006 87.2721 49.2721C85.6006 50.9435 84.2748 52.9278 83.3702 55.1117C82.4656 57.2956 82 59.6362 82 62L84.9771 62C84.9771 60.0272 85.3657 58.0736 86.1206 56.251C86.8756 54.4283 87.9822 52.7722 89.3772 51.3772C90.7722 49.9822 92.4283 48.8756 94.251 48.1206C96.0736 47.3657 98.0272 46.9771 100 46.9771C101.973 46.9771 103.926 47.3657 105.749 48.1206C107.572 48.8756 109.228 49.9822 110.623 51.3772C112.018 52.7722 113.124 54.4283 113.879 56.251C114.634 58.0736 115.023 60.0272 115.023 62H118Z" fill="black"/>
</svg>
