<svg width="200" height="200" viewBox="0 0 200 200" fill="none" xmlns="http://www.w3.org/2000/svg">
<rect x="70" y="32" width="3" height="140" fill="black"/>
<rect x="113" y="32" width="3" height="100" fill="black"/>
<rect x="108" y="62" width="3" height="110" fill="black"/>
<rect x="75" y="62" width="3" height="70" fill="black"/>
<path d="M116 32C116 28.9796 115.405 25.9888 114.249 23.1983C113.093 20.4078 111.399 17.8723 109.263 15.7365C107.128 13.6008 104.592 11.9066 101.802 10.7508C99.0112 9.59491 96.0204 9 93 9C89.9796 9 86.9888 9.59491 84.1983 10.7508C81.4078 11.9066 78.8723 13.6008 76.7365 15.7365C74.6008 17.8723 72.9066 20.4078 71.7508 23.1983C70.5949 25.9888 70 28.9796 70 32L72.9398 32C72.9398 29.3657 73.4586 26.7571 74.4668 24.3233C75.4749 21.8895 76.9525 19.678 78.8153 17.8153C80.678 15.9525 82.8895 14.4749 85.3233 13.4668C87.7571 12.4586 90.3657 11.9398 93 11.9398C95.6343 11.9398 98.2429 12.4586 100.677 13.4668C103.111 14.4749 105.322 15.9525 107.185 17.8153C109.047 19.678 110.525 21.8895 111.533 24.3233C112.541 26.7571 113.06 29.3657 113.06 32H116Z" fill="black"/>
<path d="M111 171.5C111 174.192 110.47 176.858 109.44 179.345C108.409 181.832 106.899 184.092 104.996 185.996C103.092 187.899 100.832 189.409 98.345 190.44C95.8578 191.47 93.1921 192 90.5 192C87.8079 192 85.1422 191.47 82.655 190.44C80.1678 189.409 77.9079 187.899 76.0043 185.996C74.1007 184.092 72.5907 181.832 71.5605 179.345C70.5302 176.858 70 174.192 70 171.5L72.9643 171.5C72.9643 173.803 73.4178 176.083 74.2991 178.211C75.1803 180.338 76.472 182.271 78.1004 183.9C79.7287 185.528 81.6618 186.82 83.7894 187.701C85.9169 188.582 88.1972 189.036 90.5 189.036C92.8028 189.036 95.0831 188.582 97.2106 187.701C99.3382 186.82 101.271 185.528 102.9 183.9C104.528 182.271 105.82 180.338 106.701 178.211C107.582 176.083 108.036 173.803 108.036 171.5H111Z" fill="black"/>
<path d="M111 62C111 59.6362 110.534 57.2956 109.63 55.1117C108.725 52.9278 107.399 50.9435 105.728 49.2721C104.056 47.6006 102.072 46.2748 99.8883 45.3702C97.7044 44.4656 95.3638 44 93 44C90.6362 44 88.2956 44.4656 86.1117 45.3702C83.9278 46.2748 81.9435 47.6006 80.2721 49.2721C78.6006 50.9435 77.2748 52.9278 76.3702 55.1117C75.4656 57.2956 75 59.6362 75 62L77.9771 62C77.9771 60.0272 78.3657 58.0736 79.1206 56.251C79.8756 54.4283 80.9822 52.7722 82.3772 51.3772C83.7722 49.9822 85.4283 48.8756 87.251 48.1206C89.0736 47.3657 91.0272 46.9771 93 46.9771C94.9728 46.9771 96.9264 47.3657 98.749 48.1206C100.572 48.8756 102.228 49.9822 103.623 51.3772C105.018 52.7722 106.124 54.4283 106.879 56.251C107.634 58.0736 108.023 60.0272 108.023 62H111Z" fill="black"/>
</svg>
