<svg width="200" height="200" viewBox="0 0 200 200" fill="none" xmlns="http://www.w3.org/2000/svg">
<path d="M175.27 83.1875L185.633 81.4972L185.843 82.7852L176.724 84.2727L177.555 89.3654L176.311 89.5682L175.27 83.1875Z" fill="black"/>
<path d="M185.766 91.6642C185.603 91.5174 185.512 91.3295 185.493 91.1003C185.473 90.8712 185.536 90.6701 185.682 90.4971C185.829 90.3341 186.012 90.2432 186.231 90.2246C186.46 90.2051 186.661 90.2683 186.834 90.4142C187.017 90.5592 187.118 90.7413 187.137 90.9605C187.156 91.1897 187.088 91.3912 186.932 91.565C186.786 91.738 186.599 91.8342 186.37 91.8537C186.14 91.8732 185.939 91.81 185.766 91.6642ZM176.411 91.2255L184.048 90.5759L184.159 91.8762L176.521 92.5258L176.411 91.2255Z" fill="black"/>
<path d="M176.746 99.8988H181.381C182.071 99.8988 182.576 99.7488 182.896 99.4488C183.226 99.1588 183.391 98.7588 183.391 98.2488C183.391 97.0688 182.731 96.4788 181.411 96.4788H176.746V95.1738H184.411V96.4788H183.631C184.271 96.9488 184.591 97.6088 184.591 98.4588C184.591 99.3588 184.316 100.039 183.766 100.499C183.226 100.969 182.356 101.204 181.156 101.204H176.746V99.8988Z" fill="black"/>
<path d="M175.974 109.812L176.122 108.395L180.978 106.52L179.932 105.279L176.485 104.919L176.621 103.621L186.781 104.682L187.257 106.044L181.483 105.441L183.85 108.192L183.688 109.744L181.823 107.528L175.974 109.812Z" fill="black"/>
<path d="M175.108 113.265C175.219 112.726 175.438 112.235 175.765 111.792C176.099 111.361 176.488 111.033 176.933 110.808L177.523 111.88C176.811 112.314 176.385 112.865 176.248 113.531C176.161 113.952 176.169 114.306 176.273 114.593C176.387 114.882 176.601 115.059 176.914 115.124C177.149 115.172 177.379 115.123 177.604 114.975C177.838 114.829 178.019 114.668 178.148 114.49C178.286 114.314 178.469 114.051 178.694 113.699C179.136 112.994 179.574 112.482 180.007 112.163C180.441 111.844 180.947 111.744 181.524 111.864C182.131 111.989 182.563 112.324 182.818 112.866C183.081 113.421 183.137 114.066 182.985 114.8C182.769 115.848 182.218 116.612 181.332 117.093L180.78 116.06C181.355 115.699 181.709 115.195 181.843 114.549C181.922 114.167 181.911 113.848 181.81 113.593C181.71 113.337 181.528 113.182 181.263 113.127C181.116 113.097 180.972 113.103 180.831 113.145C180.697 113.199 180.557 113.308 180.411 113.472C180.263 113.645 180.148 113.78 180.067 113.876C179.994 113.983 179.867 114.176 179.687 114.456C179.239 115.19 178.791 115.726 178.344 116.062C177.895 116.408 177.342 116.514 176.686 116.378C176.02 116.241 175.545 115.892 175.263 115.334C174.99 114.777 174.938 114.087 175.108 113.265Z" fill="black"/>
<path d="M25.4758 117.241L15.1127 118.932L14.9026 117.644L24.0221 116.156L23.1915 111.063L24.435 110.861L25.4758 117.241Z" fill="black"/>
<path d="M14.9796 108.765C15.1426 108.911 15.2339 109.099 15.2533 109.328C15.2728 109.558 15.2097 109.759 15.0638 109.932C14.9171 110.095 14.7341 110.186 14.5149 110.204C14.2857 110.224 14.0847 110.16 13.9117 110.015C13.7287 109.87 13.6279 109.688 13.6093 109.468C13.5898 109.239 13.658 109.038 13.8138 108.864C13.9597 108.691 14.1472 108.595 14.3763 108.575C14.6055 108.556 14.8066 108.619 14.9796 108.765ZM24.3354 109.203L16.698 109.853L16.5874 108.553L24.2248 107.903L24.3354 109.203Z" fill="black"/>
<path d="M24 100.53H19.365C18.675 100.53 18.17 100.68 17.85 100.98C17.52 101.27 17.355 101.67 17.355 102.18C17.355 103.36 18.015 103.95 19.335 103.95H24V105.255H16.335V103.95H17.115C16.475 103.48 16.155 102.82 16.155 101.97C16.155 101.07 16.43 100.39 16.98 99.93C17.52 99.46 18.39 99.225 19.59 99.225H24V100.53Z" fill="black"/>
<path d="M24.7718 90.6164L24.6237 92.0337L19.7676 93.9093L20.8143 95.1497L24.2606 95.5098L24.125 96.8077L13.9653 95.7463L13.4892 94.3845L19.2628 94.9876L16.8958 92.2368L17.0579 90.6853L18.9228 92.901L24.7718 90.6164Z" fill="black"/>
<path d="M25.6379 87.1642C25.5266 87.7028 25.3077 88.1937 24.9813 88.6368C24.6471 89.0681 24.2577 89.3961 23.8131 89.6208L23.2227 88.5492C23.9354 88.1144 24.3606 87.564 24.4982 86.8981C24.5852 86.477 24.5766 86.1229 24.4725 85.8359C24.3587 85.5469 24.145 85.37 23.8317 85.3053C23.5966 85.2567 23.3669 85.3062 23.1423 85.4539C22.908 85.5995 22.7266 85.7611 22.598 85.9388C22.4596 86.1144 22.2775 86.378 22.0516 86.7296C21.6098 87.4348 21.1722 87.9468 20.7387 88.2657C20.3052 88.5845 19.7995 88.6843 19.2217 88.5649C18.6146 88.4395 18.1833 88.1053 17.9278 87.5624C17.6646 87.0076 17.6089 86.363 17.7607 85.6285C17.9772 84.5807 18.5282 83.8164 19.4138 83.3356L19.9662 84.3688C19.3912 84.7299 19.037 85.2336 18.9034 85.88C18.8245 86.2619 18.8352 86.5807 18.9356 86.8363C19.036 87.0919 19.2183 87.247 19.4828 87.3016C19.6297 87.3319 19.7738 87.326 19.9153 87.2838C20.049 87.2297 20.189 87.1208 20.3351 86.9569C20.4833 86.7833 20.5979 86.6487 20.6789 86.5532C20.7522 86.4458 20.8789 86.2524 21.0592 85.9731C21.5071 85.2385 21.9547 84.703 22.402 84.3666C22.8514 84.0203 23.4041 83.915 24.0603 84.0506C24.7262 84.1882 25.2006 84.5364 25.4833 85.0951C25.7563 85.6519 25.8078 86.3416 25.6379 87.1642Z" fill="black"/>
</svg>
